#!OML:ASF F:\VICON\USERDATA\INSTALL\rory3\rory3.ASF
:FULLY-SPECIFIED
:DEGREES
949
root -1.63718 29.2658 -9.09466 -2.5415 -4.12861 1.20643
lowerback 9.66326 1.9696 -6.35851
upperback 2.78884 1.91691 -2.39792
thorax -2.63279 0.966153 0.852048
lowerneck -7.18967 1.10665 -5.10145
upperneck 32.321 1.15345 4.82167
head 11.6258 0.47485 2.83229
rclavicle 1.68967e-015 -3.10104e-014
rhumerus -30.0531 3.55931 -84.135
rradius 31.4651
rwrist 17.3759
rhand -24.919 4.78485
rfingers 7.12502
rthumb 1.58976 -25.189
lclavicle 1.68967e-015 -3.10104e-014
lhumerus -32.4326 19.3253 73.6254
lradius 30.468
lwrist 4.20576
lhand -28.3934 21.8937
lfingers 7.12502
lthumb -1.76589 51.8662
rfemur -27.7499 11.3969 15.2212
rtibia 58.3924
rfoot -4.44509 -12.5533
rtoes -10.5714
lfemur -14.6584 11.1455 -25.3414
ltibia 40.744
lfoot -17.6251 5.8473
ltoes 13.0415
950
root -1.63839 29.2552 -9.0701 -2.59041 -4.02453 1.0405
lowerback 9.66 1.95795 -6.29028
upperback 2.85093 1.91375 -2.34059
thorax -2.56594 0.961883 0.875443
lowerneck -7.34346 1.08129 -5.19847
upperneck 32.2773 1.12462 4.8893
head 11.64 0.460244 2.87271
rclavicle -2.25621e-014 2.46493e-014
rhumerus -30.1973 3.48075 -84.1264
rradius 31.4766
rwrist 17.3805
rhand -24.8628 4.99377
rfingers 7.12502
rthumb 1.64408 -24.9796
lclavicle -2.25621e-014 2.46493e-014
lhumerus -32.2926 19.3827 73.5488
lradius 30.3636
lwrist 4.32013
lhand -28.3279 21.4899
lfingers 7.12502
lthumb -1.70259 51.4628
rfemur -27.6288 11.6854 15.3376
rtibia 57.2816
rfoot -3.71995 -12.4389
rtoes -9.12605
lfemur -14.6397 11.157 -25.1271
ltibia 40.9839
lfoot -17.7723 5.70581
ltoes 13.14
951
root -1.64111 29.2433 -9.0462 -2.60023 -3.94056 0.878779
lowerback 9.67324 1.97328 -6.23538
upperback 2.85751 1.94104 -2.26541
thorax -2.56904 0.975298 0.919328
lowerneck -7.44999 1.01449 -5.38905
upperneck 32.2639 1.05386 4.95315
head 11.6592 0.414687 2.92379
rclavicle 1.44119e-014 1.19271e-014
rhumerus -30.474 3.38871 -84.0628
rradius 31.5149
rwrist 17.4596
rhand -25.037 5.223
rfingers 7.12502
rthumb 1.47586 -24.7516
lclavicle 1.44119e-014 1.19271e-014
lhumerus -32.2586 19.4392 73.4876
lradius 30.3029
lwrist 4.49127
lhand -28.2479 21.0727
lfingers 7.12502
lthumb -1.62533 51.0462
rfemur -27.531 11.9725 15.4514
rtibia 56.1576
rfoot -3.1858 -12.3605
rtoes -10.384
lfemur -14.6659 11.1426 -24.9246
ltibia 41.2299
lfoot -17.9758 5.56865
ltoes 13.3408
952
root -1.64277 29.2312 -9.02076 -2.57455 -3.85633 0.795778
lowerback 9.68294 1.97153 -6.26753
upperback 2.8122 1.93359 -2.22937
thorax -2.62339 0.973706 0.974297
lowerneck -7.51559 0.972625 -5.34082
upperneck 32.2642 1.03358 4.80564
head 11.677 0.394385 2.85864
rclavicle 1.10325e-014 3.4191e-014
rhumerus -30.3974 3.32726 -84.0798
rradius 31.1389
rwrist 17.7568
rhand -25.0799 4.93461
rfingers 7.12502
rthumb 1.43445 -25.0403
lclavicle 1.10325e-014 3.4191e-014
lhumerus -32.2963 19.4597 73.392
lradius 30.224
lwrist 4.5181
lhand -28.2736 21.0223
lfingers 7.12502
lthumb -1.65015 50.9957
rfemur -27.4918 12.2176 15.4688
rtibia 55.0312
rfoot -2.43527 -12.4272
rtoes -11.2823
lfemur -14.7158 11.0992 -24.8223
ltibia 41.4867
lfoot -18.2042 5.46778
ltoes 13.3635
953
root -1.64415 29.2168 -8.99605 -2.55073 -3.74898 0.756239
lowerback 9.66049 1.96007 -6.32036
upperback 2.82187 1.91636 -2.21438
thorax -2.60183 0.964637 1.02227
lowerneck -7.55935 0.974102 -5.25032
upperneck 32.1633 1.06086 4.67903
head 11.6463 0.404382 2.79573
rclavicle -2.73329e-014 4.21423e-014
rhumerus -30.2017 3.22468 -84.0799
rradius 30.7507
rwrist 18.0506
rhand -24.8031 4.6724
rfingers 7.12502
rthumb 1.70177 -25.3006
lclavicle -2.73329e-014 4.21423e-014
lhumerus -32.225 19.3603 73.3703
lradius 30.1472
lwrist 4.48486
lhand -28.5053 21.1321
lfingers 7.12502
lthumb -1.8739 51.1036
rfemur -27.4347 12.3662 15.4503
rtibia 53.9091
rfoot -1.1241 -12.4113
rtoes -10.9133
lfemur -14.766 11.0636 -24.7679
ltibia 41.7505
lfoot -18.4337 5.3431
ltoes 13.4914
954
root -1.64843 29.2025 -8.97203 -2.51608 -3.59909 0.632886
lowerback 9.60132 1.92404 -6.30454
upperback 2.85974 1.87804 -2.19977
thorax -2.52718 0.943279 1.03595
lowerneck -7.59899 0.983881 -5.27937
upperneck 32.0296 1.05208 4.78592
head 11.5994 0.411943 2.83635
rclavicle -6.36111e-015 -1.35174e-014
rhumerus -30.199 3.26328 -84.1811
rradius 30.6111
rwrist 18.1282
rhand -24.7867 4.80283
rfingers 7.12502
rthumb 1.71753 -25.17
lclavicle -6.36111e-015 -1.35174e-014
lhumerus -32.155 19.3124 73.2598
lradius 30.1304
lwrist 4.36398
lhand -28.4663 21.333
lfingers 7.12502
lthumb -1.83632 51.3048
rfemur -27.3752 12.5039 15.5407
rtibia 52.7869
rfoot 0.263453 -12.3344
rtoes -10.49
lfemur -14.8439 11.0031 -24.6119
ltibia 42.0215
lfoot -18.632 5.19621
ltoes 13.1711
955
root -1.65427 29.1879 -8.94685 -2.52018 -3.43292 0.436179
lowerback 9.61904 1.90434 -6.20567
upperback 2.84632 1.85989 -2.18497
thorax -2.54752 0.934923 0.997731
lowerneck -7.59652 0.974639 -5.25565
upperneck 31.9752 1.00005 4.90199
head 11.5787 0.406053 2.86806
rclavicle 1.39149e-014 -7.95139e-016
rhumerus -30.3429 3.23614 -84.297
rradius 30.516
rwrist 18.234
rhand -25.2188 5.14746
rfingers 7.12502
rthumb 1.30025 -24.8283
lclavicle 1.39149e-014 -7.95139e-016
lhumerus -32.1829 19.3566 73.0537
lradius 30.0755
lwrist 4.01512
lhand -28.3063 21.6335
lfingers 7.12502
lthumb -1.68174 51.6066
rfemur -27.2554 12.6644 15.7259
rtibia 51.6794
rfoot 1.20469 -12.3655
rtoes -9.05729
lfemur -14.9023 10.9018 -24.3595
ltibia 42.3117
lfoot -18.8507 5.02871
ltoes 13.0834
